# xmcd CD database file
#
# Track frame offsets:
#	150
#	12527
#	28015
#	50232
#	67322
#	78525
#	93797
#	108900
#	130442
#	153210
#
# Disc length: 2213 seconds
#
# Revision: 2
# Processed by: cddbd v1.5.2PL0 Copyright (c) Steve Scherf et al.
# Submitted via: CDex 1.51
#
DISCID=8608a30a
DTITLE=J.C. Crowley - Beneath The Texas Moon
DYEAR=1988
DGENRE=Country
TTITLE0=Paint The Town And Hang The Moon Tonight
TTITLE1=Harder Than It Sounds
TTITLE2=Living For The Fire
TTITLE3=Beneath The Texas Moon
TTITLE4=Serenade
TTITLE5=Dirty Shoes
TTITLE6=Boxcar 109
TTITLE7=Right As Rain
TTITLE8=Beyond The Great Divide
TTITLE9=I Know What I've Got
EXTD=YEAR: 1988
EXTT0=
EXTT1=
EXTT2=
EXTT3=
EXTT4=
EXTT5=
EXTT6=
EXTT7=
EXTT8=
EXTT9=
PLAYORDER=
